<?xml version="1.0" encoding="UTF-8"?>
<!DOCTYPE svg PUBLIC "-//W3C//DTD SVG 1.1//EN" "http://www.w3.org/Graphics/SVG/1.1/DTD/svg11.dtd">
<!-- Creator: CorelDRAW -->
<svg xmlns="http://www.w3.org/2000/svg" xml:space="preserve" width="6.82666in" height="6.82666in" style="shape-rendering:geometricPrecision; text-rendering:geometricPrecision; image-rendering:optimizeQuality; fill-rule:evenodd; clip-rule:evenodd"
viewBox="0 0 6.82666 6.82666"
 xmlns:xlink="http://www.w3.org/1999/xlink">
 <defs>
  <style type="text/css">
   <![CDATA[
    .fil2 {fill:none}
    .fil1 {fill:#A7A7A7}
    .fil0 {fill:#B5B5B6;fill-rule:nonzero}
   ]]>
  </style>
 </defs>
 <g id="Layer_x0020_1">
  <metadata id="CorelCorpID_0Corel-Layer"/>
  <g id="_498446096">
   <path id="_498446192" class="fil0" d="M1.80827 0.854165c0.13489,-0.00422835 0.270343,0.0184961 0.397531,0.0681929 0.125622,0.0490827 0.243138,0.124122 0.344098,0.225079 0.149453,0.149457 0.241929,0.335024 0.27739,0.529394 0.0319252,0.174988 0.017189,0.356736 -0.0441929,0.525201l1.92715 1.92715c0.15939,-0.0587677 0.331161,-0.0734646 0.496453,-0.0440591 0.185417,0.0329843 0.362795,0.120961 0.50574,0.263902 0.185799,0.185799 0.278697,0.429311 0.278697,0.672803 0,0.2435 -0.0929016,0.487012 -0.278697,0.672803l-3.93701e-006 3.93701e-006c-0.185795,0.185791 -0.429303,0.278697 -0.672799,0.278697 -0.243496,0 -0.487,-0.0929055 -0.672795,-0.278697l-3.93701e-006 -3.93701e-006c-0.135386,-0.135386 -0.221433,-0.301898 -0.258122,-0.476992 -0.0326811,-0.155957 -0.0258543,-0.318563 0.0204488,-0.471799l-1.94494 -1.94494c-0.168465,0.0613819 -0.350213,0.0761181 -0.525201,0.0441929 -0.194378,-0.0354646 -0.379941,-0.127937 -0.529394,-0.27739 -0.100961,-0.100957 -0.176,-0.218472 -0.225083,-0.344094 -0.0507795,-0.129961 -0.0734055,-0.268559 -0.0678858,-0.406354l0.106252 0.00416535 -0.106583 -0.00427165c0.00235827,-0.0588622 0.0519921,-0.104669 0.110854,-0.102311 0.0282795,0.00113386 0.0535433,0.0131811 0.0719016,0.0319213l0.167055 0.167051 0.204346 0.204346c0.00120079,0.00118898 0.256,-0.0679921 0.280402,-0.0745315l0.273283 -0.0732244c-0.000649606,-0.00245276 0.138193,-0.492724 0.154815,-0.55476 -0.0580039,-0.0540039 -0.140043,-0.148764 -0.202976,-0.211697l-0.167807 -0.167807 -7.87402e-006 7.87402e-006c-0.0416535,-0.0416535 -0.0416535,-0.109197 0,-0.15085 0.0220079,-0.0220079 0.051248,-0.0323858 0.0800748,-0.0311339zm3.66202 4.05217l-0.0666024 -0.248555 -0.248555 -0.0665945 -0.248551 -0.0666024 -0.182098 0.182102 -0.182102 0.182106 0.0666024 0.248543 0.0665945 0.248555 0.248555 0.0665945 0.248559 0.0666102 0.182094 -0.18211 0.182106 -0.182098 -0.0666024 -0.248551z"/>
   <path id="_498446528" class="fil1" d="M1.95857 1.0308l0.0552953 0.0552953c0.067252,0.067252 0.129543,0.143185 0.198697,0.207567l0.0733583 0.0682992 -0.0259409 0.096815c-0.0430551,0.160681 -0.110079,0.38652 -0.14352,0.511142l0.031374 0.118461 -0.433807 0.116236c-0.0463504,0.0124173 -0.0926535,0.0250472 -0.138996,0.0375039 -0.0920197,0.0247323 -0.218413,0.0778661 -0.30239,-0.00611024l-0.244453 -0.244449 -0.0151024 -0.000594488c0.00938189,0.0587047 0.0249843,0.116409 0.0467008,0.171992 0.0421181,0.107787 0.10587,0.205071 0.187697,0.286898 0.120665,0.120661 0.273622,0.200661 0.441457,0.23128 0.146354,0.0267047 0.298382,0.0141299 0.438232,-0.0368268l0.0997992 -0.0363622 2.0906 2.09059 -0.0288622 0.0955079c-0.0381181,0.12615 -0.0438858,0.260461 -0.0168661,0.389409 0.0313386,0.149543 0.104803,0.285276 0.212854,0.393327 0.147791,0.147787 0.345965,0.229882 0.554945,0.229882 0.208984,0 0.407161,-0.0820945 0.554953,-0.229886 0.147795,-0.147791 0.229882,-0.345972 0.229882,-0.554953 0,-0.20898 -0.0820866,-0.407161 -0.229882,-0.554953 -0.113937,-0.113937 -0.258437,-0.189441 -0.417079,-0.217661 -0.136811,-0.0243386 -0.279201,-0.0117402 -0.409606,0.0363425l-0.100083 0.0369016 -2.07768 -2.07769 0.0363622 -0.0997992c0.0509567,-0.13985 0.0635315,-0.291878 0.0368268,-0.438232 -0.0306181,-0.167831 -0.110614,-0.320795 -0.23128,-0.441457 -0.0818268,-0.0818268 -0.179114,-0.145575 -0.286902,-0.187693 -0.0600039,-0.0234449 -0.122823,-0.0382126 -0.186583,-0.0467913zm3.5812 3.49089l0.18302 0.683 -0.250146 0.250134 -0.250138 0.250157 -0.341504 -0.0915157 -0.341504 -0.0915 -0.0914961 -0.3415 -0.0915118 -0.341488 0.500283 -0.500295 0.341496 0.0915079 0.3415 0.0915z"/>
  </g>
 </g>
 <rect class="fil2" width="6.82666" height="6.82666"/>
</svg>
